<?xml version="1.0" encoding="utf-8"?>
<!-- Generator: Adobe Illustrator 26.0.2, SVG Export Plug-In . SVG Version: 6.00 Build 0)  -->
<svg version="1.1" id="Layer_1" xmlns="http://www.w3.org/2000/svg" xmlns:xlink="http://www.w3.org/1999/xlink" x="0px" y="0px"
	 viewBox="0 0 1600 300" style="enable-background:new 0 0 1600 300;" xml:space="preserve">
<style type="text/css">
	.st0{fill:#FFFFFF;}
</style>
<g>
	<path class="st0" d="M106.6,70.2h44.7v71.6h0.6c3.4-6.3,7.1-12.5,10.8-18.6l32.4-53h55.4L196.9,142l55.6,96.8h-52.4l-35.4-68.3
		l-13.5,17.2v51.1h-44.7V70.2z"/>
	<path class="st0" d="M313.2,70.2v168.5h-45.1V70.2H313.2z"/>
	<path class="st0" d="M377,108.1h-42.9V70.2h131.8v37.9h-43.8v130.6H377V108.1z"/>
	<path class="st0" d="M523.3,108.1h-42.9V70.2h131.8v37.9h-43.8v130.6h-45.1V108.1z"/>
	<path class="st0" d="M738.8,170.8h-60.6v31.1h67.7v36.9H633.1V70.2h109.3v36.9h-64.2v27.2h60.6V170.8z"/>
	<path class="st0" d="M771.1,238.7V70.2h53.2l26.8,51.7c9.1,16.8,19,39.3,26.4,59.1h0.7c-2.5-22.2-3.4-45.8-3.4-70.9V70.2h41.2
		v168.5h-47.6l-28.6-56c-9.4-17.9-20.3-40.5-28.4-60.9h-0.9c1.1,22.8,1.7,48.1,1.7,75.5v41.4H771.1z"/>
	<path class="st0" d="M1073.4,234.4c-6.4,3.1-22.2,6.9-42.4,6.9c-63.1,0-90.8-39.2-90.8-84.1c0-59.4,43.6-89.6,93.8-89.6
		c19.4,0,35.1,3.6,42.1,7.5l-8.8,35.5c-7.3-3.1-17.8-6.1-31.2-6.1c-25.9,0-48.4,15.3-48.4,49.8c0,30.6,18.2,49.6,49.2,49.6
		c10.9,0,23.2-2.1,30.2-4.8L1073.4,234.4z"/>
	<path class="st0" d="M1248,152.8c0,54.2-32.6,88.7-84.6,88.7c-52.2,0-80.9-39.2-80.9-86c0-49.1,32.1-88,83.8-88
		C1220.4,67.5,1248,107.7,1248,152.8z M1130.2,154.7c0,31.7,13.8,51.1,35.4,51.1c21.9,0,34.6-21.1,34.6-51.5c0-29-13-51-34.9-51
		C1144.1,103.2,1130.2,123.7,1130.2,154.7z"/>
	<path class="st0" d="M1317.2,70.2v168.5h-45.1V70.2H1317.2z"/>
	<path class="st0" d="M1348.3,238.7V70.2h53.2l26.8,51.7c9.1,16.8,19,39.3,26.4,59.1h0.7c-2.5-22.2-3.4-45.8-3.4-70.9V70.2h41.2
		v168.5h-47.6l-28.6-56c-9.4-17.9-20.3-40.5-28.4-60.9h-0.9c1.1,22.8,1.7,48.1,1.7,75.5v41.4H1348.3z"/>
</g>
</svg>
